<?xml version="1.0" encoding="UTF-8"?>
<svg id="Layer_2" data-name="Layer 2" xmlns="http://www.w3.org/2000/svg" viewBox="0 0 616.3 163.02">
  <defs>
    <style>
      .cls-1 {
        fill: #010101;
      }

      .cls-2 {
        fill: #fff;
      }
    </style>
  </defs>
  <g id="Layer_1-2" data-name="Layer 1">
    <g>
      <path class="cls-1" d="m0,121.95L16.44,36.96h32.12c6.63,0,11.76,1.06,15.42,3.18,3.65,2.12,6.2,4.75,7.64,7.89s2.17,6.28,2.17,9.41c0,3.73-.79,6.91-2.36,9.54-1.57,2.63-3.5,4.75-5.8,6.36-2.29,1.61-4.55,2.76-6.75,3.44,1.7.51,3.54,1.55,5.54,3.13,1.99,1.57,3.69,3.6,5.1,6.06,1.4,2.47,2.1,5.36,2.1,8.68,0,9.96-3.29,17-9.88,21.12-6.59,4.13-15.7,6.19-27.34,6.19H0Zm24.21-15.67h12.62c3.31,0,6.29-.91,8.92-2.74,2.63-1.83,3.95-4.95,3.95-9.37,0-2.46-.68-4.52-2.04-6.18-1.36-1.66-3.78-2.49-7.26-2.49h-12.23l-3.95,20.77Zm6.75-34.92h9.43c3.06,0,5.75-.83,8.09-2.49s3.5-4.48,3.5-8.47c0-2.21-.62-4.03-1.85-5.48-1.23-1.44-3.38-2.17-6.44-2.17h-9.17l-3.57,18.61Z"/>
      <path class="cls-1" d="m97.23,121.95l46.39-85h24.85l12.36,85h-22.3l-1.91-17.84h-27.27l-8.79,17.84h-23.32Zm39.63-33.9h18.48l-3.19-31.35-15.29,31.35Z"/>
      <path class="cls-1" d="m451.28,121.95l6.63-34.41-18.73-50.59h22.94l9.81,31.22,21.92-31.22h24.09l-38.36,50.34-6.63,34.66h-21.66Z"/>
      <path class="cls-1" d="m594,92.39l13.76,14.4c-4.84,5.18-10.2,9.35-16.06,12.49-5.86,3.14-12.83,4.71-20.9,4.71-7.39,0-13.98-1.53-19.75-4.59-5.78-3.06-10.3-7.41-13.57-13.06-3.27-5.65-4.91-12.38-4.91-20.2,0-6.97,1.19-13.55,3.57-19.75,2.38-6.2,5.74-11.7,10.07-16.5,4.33-4.8,9.47-8.56,15.42-11.28s12.49-4.08,19.63-4.08c9.18,0,16.7,2.02,22.56,6.05,5.86,4.04,10.02,9.54,12.49,16.5l-17.97,9.3c-1.95-4.08-4.31-6.99-7.07-8.73-2.76-1.74-6.43-2.61-11.02-2.61-5.18,0-9.66,1.4-13.44,4.21-3.78,2.8-6.67,6.41-8.67,10.83-2,4.42-3,9.09-3,14.02,0,3.4.68,6.56,2.04,9.5,1.36,2.93,3.36,5.31,5.99,7.13,2.63,1.83,5.86,2.74,9.68,2.74,4.5,0,8.37-.93,11.6-2.8,3.23-1.87,6.41-4.63,9.56-8.28Z"/>
      <g>
        <g>
          <path class="cls-2" d="m394.79,44.52c-.52,3.05-1.13,4.53-1.85,6.25-.77,1.86-1.65,3.97-2.44,8.15-.32,1.71-.48,2.95-.62,4.05-.22,1.77-.37,2.94-1.08,5.04-.57,1.7-1.53,4.53-3.83,7.58-1.86,2.47-4.97,6.6-9.12,7.1h-.02c-11.3-6.87-23.3-10.56-26.8-11.55-4.08-1.15-3.55-10.04-3.09-17.88.21-3.5.4-6.82.24-9.65-.57-9.89-2.32-20.73-10.94-26.01-5.14-3.15-11.78-4.08-18.12-4.09,1.17-.56,2.49-1.32,3.91-2.15,3.74-2.17,8.39-4.87,13.02-5.34,1.51-.15,2.99-.32,4.44-.48,9.28-1.05,17.3-1.96,25.77.94,3.83,1.31,11.7,5.7,13.73,9.78,1.43,2.88,3.84,5.12,8.66,9.59,2.54,2.37,4.21,3.73,5.42,4.72,1.7,1.4,2.03,1.69,2.54,2.72,1.56,3.18.99,6.55.2,11.23Z"/>
          <path class="cls-1" d="m356.53,83.41c-.15-.06-.29-.11-.44-.18.15.04.31.1.44.18Z"/>
          <path class="cls-2" d="m352.64,85.65c-1.41,1.95-3.05,4.92-5.09,8.7-.81,1.51-1.58,2.94-2.22,4.05-2.28,3.92-2.47,7.22-2.61,9.87-.16,2.77-.3,4.04-1.95,5.14-1.37.92-2.77,1.22-12.46,2.7-1.69.26-2.44.59-3.1.88-.44.19-.87.38-1.72.57.12-1.56.2-3.66.21-6.54v-.42c.05-1.9-.03-3.44-.1-4.69-.13-2.48-.14-3.52.52-4.6.81-1.3,1.44-1.7,2.48-2.36,1.45-.91,3.44-2.17,6.38-6.21,1.57-2.14,1.91-3.3,2.13-4.31.09-.42.13-.57,1.33-1.48,1.27-.97,5.15-3.91,10.12-3.07,1.65.28,3.83.96,6.09,1.78Z"/>
          <path class="cls-2" d="m312.93,129.97c-.21.28-.46.4-.81.42-1.01.04-1.73-.21-2.2-.78-1-1.22-.87-3.66-.63-5.09l4.1-1.09c.32,2.17.47,5.34-.46,6.54Z"/>
          <path class="cls-2" d="m313.27,115.18c-.07.6-.14,1.27-.14,1.98,0,.26,0,.53.02.78,0,.67.03,1.73-.06,2.22-1.28.47-2.38.47-3.81.44-.02-.42,0-1.03.02-1.45,0-.32.03-.64.03-.95,0-.34,0-.67,0-1.01,0-.79-.02-2.08.18-2.46.39-.06.78-.14,1.2-.24.85-.18,1.96-.42,2.66-.31-.01.28-.06.68-.1,1.01Z"/>
          <path class="cls-2" d="m305.68,128.71c-.2,2.1-.85,4.7-2.82,5.1-.89.18-1.31-.08-1.59-.34-1.33-1.23-1.54-4.96-1.36-7.63.89.02,2.05-.18,3.43-.45.84-.17,1.68-.35,2.34-.5.08.99.13,2.4,0,3.83Z"/>
          <path class="cls-2" d="m304.75,121.17l-4.45,1.56c.22-1.73.53-4.16.63-5.77.08-1.14.39-1.48.48-1.56.03-.03.09-.08.25-.08.03,0,.05,0,.08,0h.09s2.81-.14,2.81-.14c.12,1.32.12,4.22.1,5.99Z"/>
          <path class="cls-2" d="m297.56,119.78c-.25.67-.55,2.57-.73,3.9l-5.57-.17c.31-1.73.75-3.48,1.23-4.88.48-1.39,1.01-2.43,1.48-2.73.56-.34,1.79-.41,2.54.23,1.23,1.04,1.57,2.24,1.05,3.64Z"/>
          <path class="cls-2" d="m295.48,136.84c-.43.59-.91.89-1.51.95-.61.07-1.08-.07-1.45-.42-1.75-1.62-1.61-6.91-1.54-9.45,2.31-.53,4.81-.98,5.99-1.04.18,2.13.23,7.63-1.48,9.96Z"/>
          <path class="cls-2" d="m288.2,123.37c-.27.73-.53,1.41-.73,2.02-.65.2-2.63.03-4.65-.42l1.39-8.77c2.29-.61,4.94-.8,5.58-.12.84.89-.85,5.38-1.58,7.29Z"/>
          <path class="cls-2" d="m285.68,138.18c-1.08,1.33-2.7,1.96-4.96,1.93-1.57-.03-2.12-.62-2.4-1.06-1.26-1.99-.03-6.68,1.2-9.67l7.55.45c.08.53.14,1.17.17,1.86.08,2.13-.18,4.78-1.56,6.49Z"/>
          <path class="cls-1" d="m291.5,28.16c-.67-3.82-1.82-5.12-2.63-5.77-1.8-1.44-4.32-2.17-6.85-2.17-2.31,0-4.63.61-6.42,1.83-2.81,1.92-3.6,4.35-4.59,7.43-.83,2.57-1.87,5.76-4.49,10.18-.38.65-.74,1.23-1.07,1.77-1.98,3.28-3.19,5.26-2.6,7.99.92,4.25,6.13,5.95,8.83,5.95.09,0,.18,0,.26,0,3.71-.17,4.94-.44,10.15-1.71,5.41-1.32,6.88-6.48,7.52-10.24l.28-1.67c1.36-8,1.94-11.62,1.6-13.59Zm-12.35.01c-1.14,2.86-2.43,6.09-3.05,7.27-1.07,2.03-1.9,3.31-2.57,4.34-.76,1.18-1.37,2.12-1.82,3.43-.8,2.29-.95,4.84-.42,7.62-1.42-.16-3.74-1.13-4-2.36-.2-.92.37-1.92,2.05-4.67.34-.55.7-1.15,1.09-1.82,2.88-4.85,4.05-8.46,4.9-11.1.92-2.87,1.36-4.08,2.83-5.08.66-.46,1.46-.75,2.3-.91-.38.92-.83,2.05-1.32,3.29Z"/>
          <path class="cls-2" d="m348.06,74.52c-6.8-1.93-6.21-11.86-5.65-21.47.2-3.4.39-6.61.23-9.24-.52-9-2.03-18.78-9.26-23.21-7.78-4.76-20.51-3.67-28.36-2.67,0,0,0,0-.01,0-2.88.87-5.57,1.44-7.65,1.33-4.63-.24-8.24-2.19-11.41-3.9-2.48-1.34-4.64-2.51-6.67-2.51-.11,0-.22,0-.33,0-6.08.39-8.88,1.88-11.42,4.15-.64.57-1.42,2.2-3.97,9.56-1.29,3.72-1.53,5.75-1.77,7.72-.21,1.8-.43,3.66-1.39,6.43-.67,1.92-1.16,3.56-1.64,5.15-1.26,4.22-2.25,7.55-5.24,11.5-.35.47-.78,1.16-1.29,1.94-.68,1.07-1.52,2.39-2.62,3.93-.78,1.08-2.57,5.13-2.48,6.37.15,1.96.78,3.18,1.52,4.61.73,1.4,1.56,2.99,1.71,5.19l.02.36c.27,3.48-.23,5.23-6.85,11.14-4.63,4.14-7.8,8.12-9.81,10.84.29-.09.59-.14.9-.17.06,0,.13-.02.2-.02.13,0,.25,0,.38,0s.25,0,.38,0c.13,0,.25.01.38.03,1.76.2,3.47,1,4.61,2.39.14-.08.29-.15.44-.21,1.08-.45,2.26-.38,3.39-.27,1.63.15,3.29.7,4.16,1.95,1.28-.42,2.67-.48,3.94-.01,1.23.45,2.17,1.3,2.79,2.37.52-.53,1.14-.97,1.92-1.23,1.44-.49,3.03-.21,4.42.29.69.25,1.41.47,2.03.88,1.66,1.1,2.38,2.96,2.75,4.88,1.69-1.98,2.81-2.44,3.94-1.94.9.4,1.21,1.13,1.24,2.15,2.34-1.25,5.91-1.05,8.36.26.71.38,1.41.95,1.93,1.81,0,0,0,0,0,0l.1-.67.74-.23c1.1-.35,6.72-1.97,8.9.33.06.07.12.14.17.21.38-.46.69-.69.87-.8,1.42-.86,3.86-.92,5.49.47.24.2.46.42.67.65.22-.58.54-1.04.95-1.39.57-.49,1.29-.73,2.09-.68l3.09-.17c.98-.05,1.84.59,2.1,1.54.27-.98.84-1.76,2.03-1.94.32-.05.7-.13,1.1-.21,1.5-.33,3.19-.69,4.59-.05,1.34.62,1.17,2.15,1.01,3.49-.06.55-.13,1.12-.13,1.66,0,.25.01.51.02.77.02,1.16.04,2.23-.19,3.06h0s.14.64.14.64c.04.17.13.62.23,1.27,1.3-.64,3.25-2,3.63-2.64.03-.08.14-.33.25-1.01.19-1.15.4-3.48.42-8.21,0-.25,0-.43,0-.51.04-1.76-.03-3.16-.1-4.41-.13-2.56-.23-4.58,1.04-6.64,1.24-1.99,2.44-2.75,3.6-3.48,1.35-.84,2.86-1.8,5.42-5.3,1.25-1.73,1.41-2.42,1.53-2.98.28-1.31.71-2.09,2.64-3.55,1.57-1.19,6.37-4.83,12.83-3.73,2.12.36,5.56,1.49,8.95,2.83h0c.15.04.31.1.44.18,3.53,1.4,6.95,3,8.73,4.15.75-1.31,1.6-1.92,2.54-2.48.27-.17.48-.29.68-.46.61-.52,1.15-.87,1.67-1.12-9.68-5.23-19.09-8.12-22.09-8.97Zm-64.76,2.09c-2.1,9.2-16.35,19.31-22.83,19.31h-.13c-.1,0-.21-.01-.34-.03-.12-.02-.25-.05-.39-.09-.07-.02-.14-.04-.21-.06-1.18-.37-2.8-1.27-4.04-2.49-.85-.83-1.52-1.81-1.73-2.87-.04-.19-.08-.37-.12-.56-.35-1.57-.78-3.52.59-6.72,2.01-4.62,2.1-5.34,2.19-6.1.05-.34.1-.75.23-1.33.4-1.73.61-3.19.8-4.49.33-2.34.62-4.36,1.88-6.22,1.39-2.07,3.93-2.88,7.54-2.42.86.07,1.69.19,2.48.33,1.05.2,2.04.45,2.94.73.79.24,1.51.5,2.16.75.28.11.55.22.79.32.17.07.33.14.48.2.15.06.3.13.44.2.14.06.27.12.4.18.13.05.24.11.36.16l.21.1c6.95,3.17,6.92,8.31,6.28,11.1Zm6.61-34.87l-.28,1.67c-.64,3.76-2.11,8.91-7.52,10.24-.98.24-1.81.44-2.55.61-.25.06-.48.11-.71.17-.22.05-.44.1-.65.15-.42.09-.8.18-1.18.24-.74.14-1.41.25-2.11.33l-.26.03c-.26.03-.54.05-.81.07-.57.05-1.17.08-1.87.11-.08,0-.17,0-.26,0-2.71,0-7.91-1.71-8.83-5.95-.59-2.73.61-4.71,2.6-7.99.33-.54.69-1.12,1.07-1.77,2.62-4.42,3.66-7.62,4.49-10.19.81-2.51,1.48-4.57,3.21-6.29.4-.4.85-.78,1.38-1.14,1.34-.92,2.98-1.49,4.69-1.72.57-.07,1.15-.11,1.73-.11.79,0,1.58.07,2.35.21.77.15,1.51.36,2.21.64.42.17.82.37,1.21.59.39.22.75.46,1.08.74.81.65,1.96,1.95,2.63,5.77.34,1.97-.24,5.59-1.6,13.59Zm38.61,10.7c-1.86,3.2-2.88,4.96-4.49,6.28-3.19,2.62-6.92,3.29-9.99,3.29-2.2,0-4.08-.34-5.18-.54-3.17-.58-9.07-1.65-11.03-6.31-.39-.92-.39-1.51-.39-2.25s0-1.96-.34-4.9l-.02-.2c-.16-1.32-.33-2.82.05-4.75l.04-.23c1.11-5.66,1.41-6.52,1.66-7.01.58-1.12,1.94-1.55,3.05-.98,1.08.56,1.53,1.87,1.02,2.96-.11.33-.43,1.53-1.29,5.9l-.04.23c-.24,1.23-.14,2.17,0,3.35l.02.2c.37,3.18.37,4.63.37,5.41,0,.18,0,.38,0,.44,0,0,.01.02.02.05.54,1.28,2.08,2.11,3.73,2.66-1.37-5.28-1.53-11.99.59-15.98.62-1.19,1.78-3.15,2.88-4.97,0,0,0,0,0-.01.11-.19.22-.37.34-.56.09-.16.19-.31.27-.45.48-.8.94-1.54,1.3-2.12.05-.08.1-.17.15-.24.03-.06.07-.11.1-.16.08-.13.15-.24.21-.35.03-.05.06-.09.08-.14.01-.02.02-.04.03-.05.03-.06.07-.11.1-.16.06-.09.1-.16.13-.2,0,0,0-.02.01-.02,0-.01.01-.02.01-.02.94-1.37,1.85-2.56,2.63-3.53-3.09.63-5.37,2.36-5.72,2.64-.98.78-2.4.62-3.18-.36s-.61-2.41.37-3.19c1.17-.92,7.34-5.42,14.74-3.31,5.33,1.52,8.12,5.59,9.18,7.12.85,1.24,3.45,5.02,3.36,10.29-.06,4.02-1.74,6.91-4.79,12.16Z"/>
          <path class="cls-2" d="m280.47,24.88c-.38.92-.83,2.05-1.32,3.29-1.14,2.86-2.43,6.09-3.05,7.27-1.07,2.03-1.9,3.31-2.57,4.34-.76,1.18-1.37,2.12-1.82,3.43-.8,2.29-.95,4.84-.42,7.62-1.42-.16-3.74-1.13-4-2.36-.2-.92.37-1.92,2.05-4.67.34-.55.7-1.15,1.09-1.82,2.88-4.85,4.05-8.46,4.9-11.1.92-2.87,1.36-4.08,2.83-5.08.66-.46,1.46-.75,2.3-.91Z"/>
          <path class="cls-2" d="m277.67,126.63c-1.57,3.21-3.52,6.17-4.74,7.63-1.01-2.73-2.76-8.97-2.3-14,.01-.14.03-.29.05-.43.19-1.55.6-2.98,1.33-4.12.48-.75,1.82-1.21,3.35-1.21,1.12,0,2.35.25,3.4.81h0c.56.3,1.33.91,1.41,2.68.11,2.4-1.03,5.62-2.51,8.63Z"/>
          <path class="cls-1" d="m277.02,65.51l-.21-.1c-1.78-.81-5.46-2.5-10.05-2.87-3.61-.46-6.15.36-7.54,2.43-1.26,1.86-1.55,3.88-1.88,6.22-.19,1.3-.4,2.76-.8,4.49-.14.59-.19,1-.23,1.33-.09.76-.19,1.48-2.19,6.1-1.38,3.2-.95,5.15-.6,6.72.04.18.08.37.12.56.61,3.07,5.08,5.51,6.71,5.54h.13c6.48,0,20.73-10.12,22.83-19.31.64-2.79.67-7.93-6.28-11.1Zm-18.95,23.99c-.04-.22-.09-.44-.14-.65-.28-1.26-.47-2.08.34-3.93,2.11-4.86,2.37-6.01,2.53-7.34.03-.29.07-.51.15-.88.45-1.92.68-3.56.87-4.88.28-2,.48-3.33,1.15-4.32.25-.37.94-.56,1.94-.56.39,0,.84.03,1.32.1h.11c.05.01.1.02.15.03-.02.03-.05.06-.07.09-.46.64-.99,1.37-1.62,2.78-1.7,3.77-1.73,5.9-1.76,7.62-.02.9-.03,1.62-.27,2.45-.17.55-.45,1.18-.76,1.91-1,2.29-2.31,5.29-1.72,9.33-.81-.39-2.05-1.28-2.22-1.76Z"/>
          <path class="cls-2" d="m363.94,90.82c-.49,1.08-1.09,1.79-1.82,2.64-.8.95-1.72,2.04-2.57,3.72-1.21,2.39-1.6,4.57-1.81,10.16-.24,6.56.01,10.25.2,12.94.18,2.6.29,4.16-.17,6.69-.93,5.11-3.12,8.49-5.88,12.77-3.46,5.35-7.04,10.88-12.97,12.65-.55.17-.57.17-2.12.17-1.34,0-3.58,0-7.82.16-7.74.28-11.63.42-14.95,1.06-3.49.67-5.31,1.42-7.07,2.13-1.59.64-3.1,1.26-5.98,1.85-1.72.35-4.29.73-13.04.74-9.1.02-14.59.02-21.84-.81-9.95-1.14-14.95-1.7-18.26-3.48-7.83-4.17-11.13-11.68-16.6-24.12-.09-.22-.19-.43-.28-.64.17.13.34.25.51.36.26.16.53.29.81.39.24.08.49.15.74.19.5.08,1.02.09,1.55,0,.09-.02.18-.04.26-.07.08-.03.16-.08.22-.13.02.06.04.14.07.2.35.96.9,1.81,1.83,2.3.93.48,1.98.52,3.02.51,1.06-.02,2.14-.08,3.2-.2.32-.03.67-.1.99-.2,1.03,2.83,2.31,4.97,4.35,5.25.1.01.22.03.39.03.6,0,1.68-.26,3.37-1.97.4,1.63,1.44,2.49,2.25,3.14,1.86,1.91,6.39,2.83,10.19,2.83,2.07,0,3.93-.27,5.03-.81,1.57-.76,1.57-1.93,1.49-2.4-.17-1.08-.32-2.14-.44-3.19.09.25.19.46.26.63.23.5.5,1.12,1.25,1.23.08,0,.17.03.27.03.47,0,1.22-.29,2.78-2.34-.2,1.88-.05,3.75.84,5.15.64,1.01,1.93,2.21,4.5,2.25h.2c2.95,0,5.22-.96,6.76-2.87.76-.94,1.27-2.03,1.59-3.16.36,1.04.86,1.96,1.58,2.62.79.73,1.78,1.11,2.89,1.11.18,0,.36,0,.54-.03,1.32-.14,2.46-.84,3.31-2.03.7-.97,1.16-2.22,1.46-3.55.16.22.34.42.54.6.56.52,1.47,1.07,2.77,1.07.32,0,.66-.03,1.03-.11,2.64-.53,3.91-2.77,4.49-5.25.04.06.08.12.14.18.65.79,1.84,1.7,3.93,1.7.11,0,.22,0,.33,0,1.1-.05,2.03-.53,2.7-1.4.95-1.24,1.23-3.17,1.23-5,2.29-.73,5.5-3.01,6.37-4.51.11-.19.22-.42.33-.73,2.15-.36,2.99-.72,3.74-1.05.55-.24.99-.43,2.23-.62,9.84-1.5,11.76-1.83,13.89-3.25,3.19-2.12,3.35-5.05,3.5-7.88.14-2.39.29-5.11,2.15-8.29.67-1.16,1.45-2.61,2.28-4.15,1.62-3,3.95-7.33,5.4-9.03,3.7,1.54,6.97,3.16,7.64,3.69-.02-.02.13.07.25.13Z"/>
          <path class="cls-2" d="m268.13,119.95c-.39,3.4-.63,7.95-.08,13.87.16,1.67.37,3.41.64,5.16-.47.25-1.86.61-4.33.57-3.56-.07-7.02-.97-8.06-2.09l-.16-.14c-.87-.7-1.43-1.15-1.51-2.4-.03-.42.15-.84.54-1.42.21-.33.49-.71.84-1.18.6-.8,1.34-1.8,2.1-3.09,2.23-3.76,3.07-4.92,4.14-6.39.08-.12.17-.24.27-.36.63-.87,1.37-1.9,2.49-3.6.83-1.26,1.52-2.25,2.09-3.03.95-1.29,1.57-1.99,1.97-2.38-.06.59-.19,1.41-.32,2.17-.19,1.16-.43,2.59-.62,4.31Z"/>
          <path class="cls-2" d="m266.5,67.07s-.05.06-.07.09c-.46.64-.99,1.37-1.62,2.78-1.7,3.77-1.73,5.9-1.76,7.62-.02.9-.03,1.62-.27,2.45-.17.55-.45,1.18-.76,1.91-1,2.29-2.31,5.29-1.72,9.33-.81-.39-2.05-1.28-2.22-1.76-.04-.22-.09-.44-.14-.65-.28-1.26-.47-2.08.34-3.93,2.11-4.86,2.37-6.01,2.53-7.34.03-.29.07-.51.15-.88.45-1.92.68-3.56.87-4.88.28-2,.48-3.33,1.15-4.32.25-.37.94-.56,1.94-.56.39,0,.84.03,1.32.1h.11c.05.01.1.02.15.03Z"/>
          <path class="cls-1" d="m262.55,110.78s0,0,0,0c0,0,0,0,0-.01,0,0,0-.01-.01-.02-.03-.04-.03-.06-.03-.07.03.03.14.2.06.11Z"/>
          <path class="cls-1" d="m261.62,110.08s.04.02.05.02c-.01,0-.03,0-.05-.02Z"/>
          <path class="cls-1" d="m261.61,110.08s0,0-.02,0c0,0,0,0,0,0h0s0,0,0,0h0s.02.01.03.02Z"/>
          <path class="cls-1" d="m261.57,110.06s.02,0,.02.01l-.05-.02s.02,0,.03,0Z"/>
          <path class="cls-1" d="m261.48,110.03s.01,0,.03.01c-.01,0-.02,0-.03,0h0Z"/>
          <path class="cls-1" d="m261.57,110.06s-.02,0-.03,0c-.01,0-.02-.01-.03-.02.01,0,.03,0,.06.02Z"/>
          <path class="cls-1" d="m261.48,110.03h0s0,0,0,0h0Z"/>
          <path class="cls-1" d="m259.3,109.38h-.01s0,0,0,0c0,0,.01,0,.02,0Z"/>
          <path class="cls-2" d="m263.72,115.02c-.11-1.17-.32-2.33-.74-3.43-.03-.06-.16-.34-.18-.39-.08-.14-.17-.27-.25-.41,0,0,0,0,0,0,0,0,0,0,0-.01-.05-.05-.09-.1-.14-.15-.07-.07-.14-.14-.22-.2-.01-.02-.03-.03-.04-.03-.03-.03-.08-.07-.14-.1-.09-.05-.17-.1-.26-.14-.03-.02-.09-.04-.15-.06,0,0,0,0,0,0-.01,0-.03,0-.04-.01-.01,0-.02-.01-.03-.02-.01,0-.02,0-.03,0s0,0,0,0c-.03-.01-.04-.02-.06-.02-.68-.25-1.37-.52-2.09-.63,0,0-.02,0-.03,0h-.02c-.08,0-.25-.02-.25-.02-.1,0-.2,0-.3,0-.05,0-.09,0-.14,0h-.04s-.04,0-.06,0c0,0-.02,0-.03,0h0c-.16.05-.33.09-.49.14-.07.03-.14.07-.21.11-.06.03-.12.08-.18.11,0,0-.01.01-.02.01h-.01c-.08.09-.16.16-.23.24-.03.03-.1.11-.15.18-.01,0-.02.02-.02.03t0,0s0,0-.01.01c0,0,0,0,0,0-.02.04-.04.07-.05.08-.27.42-.55.84-.83,1.26-.65,1-1.32,2-2,2.99-.62.9-1.24,1.79-1.85,2.68-.34.5-.68,1-1.02,1.5-.06.08-.11.17-.17.25.4.08.81.16,1.21.23.91.17,1.82.33,2.74.45,1.9.26,3.84.38,5.77.31.09,0,.19,0,.27.02.46-.66,1.01-1.45,1.7-2.51.39-.59.75-1.14,1.1-1.64-.15-.24-.25-.53-.28-.84Z"/>
          <path class="cls-1" d="m258.05,109.47s-.02.02-.04.03c0,0-.01.01-.02.02-.01,0-.02,0-.03,0-.03,0-.05.01-.06.01.03-.02.13-.06.14-.06Z"/>
          <path class="cls-1" d="m257.57,109.74h-.01s0,.02-.01.02c0,0,.02-.01.03-.02Z"/>
          <path class="cls-1" d="m257.62,109.7s-.01.02-.03.03c0,0-.01.01-.02.01.02-.02.04-.03.05-.04Z"/>
          <path class="cls-1" d="m257.2,110.11s-.02.03-.03.05c-.01,0-.02.02-.02.03t0,0s0,0-.01.01c0,0,0,0,0,0,0-.01.02-.03.04-.07.01-.01.02-.03.03-.03Z"/>
          <path class="cls-1" d="m256.95,122.78s0,.07,0,.11c-.35-.03-.7-.07-1.05-.11h1.06Z"/>
          <path class="cls-2" d="m256.94,122.88c-.17,1.47-1.81,5.27-4.37,8.89-2.15,3.02-3.45,3.76-3.71,3.78-1.03-.14-2.06-2.71-2.87-5.25-.33-1.03-.62-2.06-.87-2.92-.56-1.93-.66-4.53-.56-6.15,2.16,1.2,5.96,1.52,11.3,1.54h.02c.35.04.7.08,1.05.11Z"/>
          <path class="cls-1" d="m398.66,31.3c-.96-1.95-1.94-2.76-3.73-4.23-1.17-.95-2.77-2.27-5.22-4.53-4.4-4.1-6.62-6.16-7.68-8.3-2.91-5.83-12.42-10.71-16.31-12.05-9.43-3.23-18.33-2.22-27.75-1.16-1.44.17-2.91.33-4.4.49-5.59.57-10.71,3.54-14.83,5.93-1.89,1.1-3.67,2.13-4.73,2.43-.45.13-1.16.4-2.47.92-3.01,1.18-8.89,3.47-12.56,3.89-.52.05-.98.07-1.39.05-3.61-.19-6.6-1.8-9.49-3.36-3.1-1.67-6.01-3.25-9.44-3.02-6.38.4-10.35,1.89-14.15,5.29-1.44,1.29-2.26,2.86-5.24,11.45-1.44,4.18-1.73,6.57-1.98,8.68-.2,1.7-.38,3.17-1.18,5.48-.7,2-1.22,3.78-1.69,5.34-1.18,3.93-2.02,6.77-4.51,10.07-.47.61-.94,1.36-1.5,2.24-.65,1.01-1.45,2.28-2.48,3.72-.84,1.18-3.54,6.4-3.32,9.36.22,2.88,1.21,4.8,2.02,6.34.62,1.21,1.11,2.17,1.2,3.43l.03.38c.13,1.8.19,2.48-5.36,7.43-6.03,5.39-9.68,10.46-11.65,13.18-3.18,4.41-4.77,6.63-5.68,9.48-1.01,3.21-1.71,8.95,3.91,21.72,5.66,12.88,9.41,21.38,18.62,26.29,4.08,2.17,9.36,2.77,19.88,3.97,6.57.75,11.66.84,19.03.84h3.33c9.17-.01,12-.44,13.93-.84,3.3-.67,5.07-1.38,6.77-2.08,1.64-.66,3.18-1.29,6.23-1.88,2.98-.58,6.75-.71,14.26-.98,4.16-.15,6.35-.16,7.66-.16,1.7,0,2.21,0,3.4-.36,7.54-2.25,11.76-8.78,15.48-14.54,2.8-4.32,5.44-8.42,6.53-14.4.57-3.1.43-5.08.23-7.83-.19-2.58-.43-6.13-.2-12.45.2-5.19.51-6.68,1.32-8.27.62-1.21,1.29-2.01,1.99-2.85,1.05-1.25,2.25-2.66,3.08-5.27.5-1.57.81-1.75,1.48-2.16.35-.22.78-.48,1.26-.88q.68-.58,2.03-.65c.7-.03,1.65-.08,2.96-.23,6.06-.74,10.05-6.03,12.19-8.87,2.75-3.64,3.89-7.04,4.51-8.86.85-2.54,1.05-4.1,1.28-5.92.13-1.03.28-2.2.58-3.77.7-3.73,1.45-5.52,2.17-7.26.75-1.8,1.53-3.67,2.13-7.24.86-5.09,1.6-9.49-.6-13.97Zm-170.17,91.56c-1.7-5.45-1.6-8.45-1.3-10.08h0c.3.6.89,1.03,1.47,1.48.25.19.5.38.75.56-.62,2.58-1.03,5.35-.92,8.04Zm1.71-11.21s-.07-.06-.11-.08c-.06.17-.1.33-.09.46-.06-.26-.13-.51-.2-.77.05.12.14.19.3.31.12-.35.35-.74.47-.99.28-.61.59-1.22.92-1.81.62-1.1,1.32-2.18,2.11-3.17.29-.37.58-.84,1.03-.97.41-.12.96-.06,1.3,0,.99.19,1.77.64,2.41,1.39-1.34,1.65-2.56,3.4-3.66,5.21-.44.74-.94,1.5-1.31,2.29-.53-.15-1.01-.36-1.52-.67-.39-.24-.77-.51-1.14-.79-.09-.08-.35-.28-.51-.4Zm20.85-3.48s.05.01.1.03c.16.05.32.08.48.14-.01,0-.02,0-.03-.01.02,0,.04.01.05.02,0,0-.02,0-.02,0,.05.02.1.05.16.08.13.08.26.15.38.24-.11-.07.33.38.33.35.41.57.54,1.03.65,1.8h0s-.04.08-.07.11c-.92,1.35-1.84,2.69-2.76,4.04-.48.69-.96,1.38-1.42,2.08-.26.38-.6.79-.91,1.24-.76-.18-1.52-.35-2.27-.57-.61-.18-1.22-.37-1.81-.6-.12-.04-.23-.09-.34-.15-.18-.07-.34-.15-.51-.23,0,0-.02,0-.03-.01.05-.09.09-.18.13-.26,0,0,0-.02,0-.02.21-.44.43-.89.65-1.33.41-.81.82-1.61,1.28-2.39.81-1.41,1.79-2.84,3.17-3.75.07-.05.15-.1.21-.15.54-.33,1.07-.57,1.73-.65.08,0,.54,0,.76.01.04,0,.07,0,.09,0-.05-.03.11,0,0,0Zm6.28,1.81c.07-.07.16-.15.23-.22,0,0,0,0-.01,0,0,0,.02-.01.02-.01.02-.02.04-.03.05-.04,0,0-.01.01-.03.03.06-.03.12-.07.18-.11.07-.04.15-.07.21-.11h-.03s-.04.01-.05.01c.02-.02.13-.06.15-.06,0,.01-.02.01-.04.03,0,0-.01.01-.02.02.16-.05.33-.1.49-.14h0s.02,0,.02,0c.02,0,.04,0,.06,0h0s.02,0,.03,0c0,0,0,0,0,0,.04,0,.09,0,.14,0h.3s.18.02.25.02h0s0,0,.01,0h0s.02,0,.02,0c.72.1,1.41.38,2.09.62.01,0,.03,0,.05.02h0s.01,0,.03,0c.01,0,.03,0,.05.02h0s0,0,0,0h0c.06.02.12.05.14.06.09.05.18.1.26.15.06.03.11.07.14.1.01,0,.02.01.04.03.07.06.15.13.21.2.04.04.08.08.12.13-.02-.04-.03-.06-.03-.07.03.03.14.2.06.11.08.14.17.27.24.41.02.05.15.34.18.39.42,1.1.63,2.27.75,3.43.03.3.13.59.28.83-.35.51-.72,1.05-1.1,1.64-.7,1.05-1.24,1.84-1.71,2.51-.08-.02-.18-.02-.27-.02-1.93.07-3.86-.05-5.77-.31-.92-.13-1.83-.29-2.74-.45-.41-.08-.81-.16-1.21-.23.05-.08.11-.17.17-.25.34-.5.68-1,1.02-1.5.61-.9,1.23-1.79,1.85-2.69.68-.99,1.35-1.98,2-2.98.28-.42.56-.84.83-1.27,0-.01.03-.04.05-.08t0,0s.01-.03.03-.06c0,0,0-.01.02-.01,0,0,0,.02-.01.03.05-.06.13-.16.15-.18Zm10.73,23.84c.16,1.67.37,3.4.64,5.16-.47.26-1.86.61-4.33.58-3.56-.07-7.03-.97-8.06-2.09l-.16-.15c-.86-.69-1.43-1.15-1.51-2.39-.03-.42.15-.83.54-1.42.21-.33.49-.71.84-1.18.6-.8,1.34-1.8,2.1-3.09,2.23-3.76,3.07-4.92,4.14-6.39.08-.12.17-.24.27-.36.63-.87,1.37-1.9,2.49-3.6.83-1.26,1.53-2.25,2.09-3.03.95-1.29,1.57-1.99,1.97-2.37-.06.59-.2,1.41-.32,2.17-.19,1.16-.43,2.59-.62,4.31-.39,3.4-.62,7.95-.07,13.87Zm-15.48-2.05c-2.15,3.02-3.45,3.75-3.71,3.78-1.03-.15-2.05-2.71-2.87-5.25-.33-1.03-.62-2.06-.86-2.92-.56-1.94-.66-4.52-.56-6.15,2.16,1.2,5.96,1.52,11.3,1.55h1.08s0,.07,0,.1c-.17,1.47-1.81,5.27-4.37,8.89Zm-9.86-3.69c.16.56.32,1.12.48,1.66-.08.07-.16.15-.22.24-.06.01-.12.03-.16.03-.41.04-.82.07-1.23.1-.79.05-1.59.09-2.39.06-.44-.02-.85-.09-1.03-.37-.29-.44-.39-1.22-.49-1.81-.52-2.9-.59-5.92-.22-8.85,1.51.55,3.07.97,4.67,1.23-.34,2.64.24,6.52.59,7.71Zm-.79-15.92c-.58,1.07-1.1,2.16-1.64,3.26-.06.11-.11.21-.18.33-.51-.11-1.02-.26-1.53-.42-.54-.17-1.06-.36-1.57-.6-.23-.11-.47-.22-.7-.35.51-.97,1.11-1.89,1.69-2.79.81-1.27,1.7-2.52,2.65-3.69.36-.44.74-.93,1.25-1.22.52-.31,1.14-.23,1.74-.2.62.04,1.3.05,1.9.29.12.05.25.14.35.2-1.7,1.39-2.93,3.25-3.96,5.19Zm-7.68,12.02c.04,1.11.16,2.2.31,3.3v.03c-.23-.06-.49-.06-.74-.03.05-.01-.08,0-.14,0h-.01s-.09,0-.11-.01c-.28-.07-.3-.1-.53-.24-.29-.19-.59-.53-.79-.87-.54-.93-.66-2.06-.7-3.12-.08-2.07.1-4.14.48-6.18.33.14.62.26,1.1.47.47.21.97.41,1.44.63h0c-.27,2-.4,4.01-.31,6.03Zm127.88-30.73c-.8.96-1.72,2.04-2.57,3.73-1.21,2.39-1.6,4.57-1.81,10.16-.24,6.56.01,10.25.2,12.94.19,2.59.29,4.16-.17,6.69-.93,5.1-3.12,8.49-5.88,12.76-3.46,5.35-7.04,10.89-12.97,12.65-.55.17-.57.17-2.12.18-1.35,0-3.58,0-7.82.16-7.75.28-11.63.42-14.95,1.06-3.49.67-5.31,1.41-7.07,2.13-1.59.64-3.1,1.26-5.98,1.85-1.72.35-4.29.73-13.04.74-9.1.01-14.59.02-21.84-.8-9.95-1.14-14.95-1.71-18.26-3.48-7.83-4.17-11.13-11.68-16.6-24.12-.09-.21-.19-.43-.27-.64.17.13.33.25.51.36.26.16.53.29.81.39.24.08.49.15.74.19.5.09,1.02.09,1.56,0,.09-.01.18-.04.26-.07.08-.03.16-.08.22-.13.02.06.04.14.07.2.35.96.9,1.81,1.83,2.31.93.48,1.98.52,3.02.51,1.06-.02,2.14-.08,3.2-.2.32-.03.66-.1.98-.2,1.04,2.83,2.31,4.97,4.35,5.26.1.01.22.03.39.03.6,0,1.69-.26,3.37-1.96.4,1.63,1.44,2.49,2.25,3.14,1.86,1.92,6.39,2.83,10.19,2.83,2.08,0,3.93-.27,5.03-.8,1.57-.76,1.57-1.93,1.49-2.39-.17-1.08-.32-2.15-.43-3.19.09.24.19.46.26.63.23.5.5,1.12,1.25,1.23.08,0,.17.03.27.03.47,0,1.22-.29,2.78-2.34-.2,1.88-.05,3.75.83,5.15.64,1.01,1.93,2.21,4.5,2.25h.2c2.95,0,5.22-.96,6.76-2.87.76-.94,1.27-2.03,1.59-3.16.36,1.04.86,1.96,1.58,2.62.79.73,1.78,1.11,2.89,1.11.18,0,.36,0,.54-.03,1.32-.14,2.46-.84,3.31-2.03.7-.97,1.16-2.22,1.46-3.55.17.22.35.42.54.6.57.52,1.47,1.07,2.77,1.07.32,0,.66-.03,1.02-.11,2.64-.53,3.91-2.76,4.5-5.25.03.06.08.13.14.19.65.79,1.84,1.7,3.92,1.7.11,0,.21,0,.33,0,1.1-.05,2.03-.54,2.7-1.4.95-1.24,1.23-3.17,1.23-5.01,2.3-.73,5.5-3.01,6.37-4.51.11-.19.22-.42.33-.73,2.16-.36,2.99-.72,3.74-1.05.55-.24.99-.43,2.23-.62,9.84-1.5,11.76-1.83,13.89-3.25,3.18-2.13,3.34-5.05,3.5-7.87.14-2.39.29-5.1,2.15-8.29.67-1.16,1.46-2.61,2.28-4.14,1.62-3,3.95-7.33,5.4-9.03,3.71,1.54,6.97,3.15,7.64,3.69,0,0,.14.08.25.13-.49,1.08-1.09,1.79-1.81,2.64Zm-75.06,36.38c.08.53.14,1.17.17,1.86.08,2.13-.18,4.78-1.56,6.49-1.08,1.33-2.7,1.96-4.96,1.93-1.57-.03-2.13-.62-2.4-1.07-1.26-1.99-.02-6.67,1.2-9.67l7.55.45Zm-4.24-4.87l1.39-8.77c2.29-.61,4.93-.8,5.58-.13.84.9-.85,5.38-1.58,7.3-.27.72-.53,1.41-.73,2.02-.65.2-2.63.02-4.65-.42Zm-5.15,1.66c-1.57,3.21-3.53,6.17-4.74,7.64-1.01-2.73-2.76-8.97-2.3-14,0-.15.03-.29.05-.43.19-1.55.6-2.98,1.33-4.12.48-.75,1.82-1.21,3.35-1.21,1.12,0,2.35.25,3.39.81h0c.57.3,1.33.91,1.41,2.68.11,2.4-1.03,5.62-2.51,8.63Zm19.29.25c.18,2.13.23,7.63-1.48,9.96-.43.59-.91.89-1.51.96-.6.07-1.08-.07-1.45-.42-1.75-1.62-1.61-6.91-1.55-9.45,2.31-.53,4.81-.98,5.99-1.04Zm-5.71-3.36c.31-1.73.75-3.48,1.23-4.88.48-1.39,1-2.44,1.48-2.73.56-.33,1.79-.41,2.55.23,1.23,1.04,1.57,2.24,1.05,3.65-.25.67-.55,2.56-.73,3.9l-5.57-.17Zm12.09,1.87c.84-.16,1.67-.35,2.34-.5.08.99.13,2.39,0,3.83-.2,2.1-.85,4.7-2.82,5.1-.89.19-1.32-.08-1.59-.34-1.33-1.24-1.54-4.96-1.36-7.63.89.01,2.05-.19,3.43-.45Zm-3.05-2.66c.22-1.73.53-4.15.63-5.77.07-1.14.39-1.48.47-1.56.03-.02.09-.08.25-.08.03,0,.05,0,.08,0h.09s2.81-.14,2.81-.14c.12,1.32.12,4.22.1,5.99l-4.45,1.56Zm9.21-8.01c.39-.05.78-.14,1.2-.24.85-.18,1.96-.41,2.66-.31,0,.27-.05.68-.1,1-.07.59-.14,1.27-.14,1.97,0,.26,0,.53.01.78,0,.67.03,1.74-.06,2.22-1.28.47-2.37.47-3.81.44-.02-.42,0-1.04.02-1.46,0-.32.02-.64.03-.95,0-.34,0-.67,0-1.01,0-.79-.01-2.08.18-2.46Zm-.21,9.81l4.1-1.09c.32,2.17.47,5.33-.46,6.54-.21.27-.46.4-.81.42-1.01.04-1.73-.21-2.19-.78-1-1.22-.87-3.67-.63-5.1Zm14.3-18.62c-.13-2.48-.15-3.52.52-4.6.81-1.3,1.44-1.7,2.48-2.35,1.45-.91,3.44-2.17,6.38-6.22,1.57-2.14,1.91-3.3,2.13-4.31.1-.42.13-.58,1.34-1.49,1.27-.97,5.15-3.91,10.12-3.07,1.64.28,3.83.96,6.09,1.78-1.41,1.95-3.05,4.91-5.1,8.7-.81,1.51-1.57,2.94-2.22,4.05-2.28,3.92-2.47,7.22-2.61,9.86-.16,2.77-.3,4.04-1.95,5.14-1.37.92-2.77,1.22-12.47,2.7-1.69.26-2.44.59-3.11.88-.44.2-.87.38-1.72.57.12-1.56.2-3.67.21-6.54v-.42c.05-1.9-.03-3.44-.1-4.69Zm44.9-21.29c-.2.17-.41.3-.68.46-.94.56-1.78,1.17-2.54,2.48-1.78-1.15-5.21-2.75-8.73-4.15-.15-.06-.29-.12-.44-.18h0c-3.39-1.34-6.83-2.47-8.95-2.83-6.47-1.09-11.26,2.55-12.83,3.73-1.94,1.46-2.36,2.24-2.64,3.55-.12.56-.28,1.25-1.53,2.98-2.55,3.51-4.07,4.46-5.42,5.3-1.16.73-2.36,1.49-3.6,3.48-1.27,2.06-1.17,4.08-1.04,6.64.07,1.24.14,2.65.1,4.41,0,.08,0,.26,0,.51-.02,4.73-.23,7.06-.42,8.21-.12.68-.22.93-.25,1.01-.39.64-2.34,2-3.63,2.64-.1-.65-.2-1.11-.23-1.27l-.14-.64h0c.23-.83.2-1.9.19-3.06,0-.26,0-.51-.02-.77,0-.54.06-1.11.13-1.66.16-1.35.33-2.87-1.01-3.49-1.39-.64-3.09-.28-4.59.05-.4.08-.78.16-1.1.21-1.19.18-1.76.95-2.03,1.94-.25-.95-1.12-1.59-2.1-1.54l-3.09.17c-.8-.05-1.52.19-2.09.68-.41.35-.73.81-.95,1.39-.2-.23-.42-.44-.67-.65-1.62-1.39-4.06-1.34-5.49-.47-.19.11-.49.34-.87.8-.05-.08-.11-.15-.17-.21-2.18-2.3-7.8-.68-8.9-.33l-.74.23-.1.67s0,0,0,0c-.51-.86-1.21-1.43-1.93-1.81-2.45-1.31-6.02-1.51-8.36-.26-.03-1.01-.34-1.74-1.24-2.15-1.13-.5-2.25-.04-3.94,1.94-.37-1.91-1.09-3.77-2.75-4.88-.62-.41-1.34-.63-2.03-.88-1.39-.5-2.98-.78-4.42-.29-.78.26-1.39.7-1.92,1.23-.62-1.07-1.57-1.92-2.79-2.37-1.27-.46-2.67-.4-3.94.01-.88-1.25-2.53-1.8-4.16-1.95-1.13-.11-2.32-.18-3.39.27-.15.06-.3.13-.44.21-1.14-1.39-2.85-2.19-4.61-2.39-.13-.02-.25-.03-.38-.03-.13,0-.25,0-.38,0s-.25,0-.38,0c-.06,0-.13,0-.2.02-.31.02-.6.08-.9.17,2.02-2.73,5.18-6.7,9.81-10.84,6.62-5.91,7.12-7.66,6.85-11.14l-.02-.36c-.15-2.19-.98-3.78-1.71-5.19-.73-1.42-1.37-2.64-1.52-4.61-.1-1.23,1.7-5.29,2.48-6.37,1.11-1.54,1.95-2.86,2.62-3.93.5-.79.94-1.47,1.29-1.94,2.99-3.95,3.98-7.28,5.24-11.5.48-1.59.97-3.24,1.64-5.15.96-2.77,1.18-4.63,1.39-6.43.24-1.97.48-4.01,1.77-7.72,2.55-7.36,3.33-8.99,3.97-9.56,2.54-2.27,5.34-3.75,11.42-4.15.11,0,.22,0,.33,0,2.03,0,4.19,1.17,6.67,2.51,3.17,1.71,6.78,3.66,11.41,3.9,2.09.11,4.78-.45,7.65-1.33,0,0,0,0,.01,0,7.85-1,20.58-2.09,28.36,2.67,7.23,4.43,8.74,14.22,9.26,23.21.16,2.63-.03,5.84-.23,9.24-.57,9.61-1.15,19.54,5.65,21.47,3,.85,12.41,3.74,22.09,8.97-.52.24-1.05.59-1.67,1.12Zm26.31-40.09c-.52,3.05-1.13,4.53-1.85,6.25-.77,1.86-1.65,3.96-2.44,8.15-.32,1.71-.48,2.95-.62,4.05-.22,1.76-.37,2.94-1.08,5.04-.57,1.7-1.53,4.53-3.83,7.58-1.86,2.47-4.97,6.6-9.12,7.1h-.02c-11.3-6.87-23.3-10.56-26.8-11.56-4.08-1.15-3.55-10.04-3.09-17.87.2-3.51.4-6.82.24-9.65-.58-9.89-2.33-20.73-10.95-26.01-5.14-3.15-11.78-4.08-18.12-4.09,1.18-.56,2.49-1.32,3.92-2.15,3.74-2.16,8.4-4.87,13.02-5.34,1.51-.15,2.98-.32,4.45-.48,9.28-1.05,17.3-1.96,25.76.94,3.83,1.32,11.7,5.7,13.73,9.78,1.43,2.88,3.84,5.12,8.65,9.6,2.55,2.36,4.21,3.73,5.42,4.72,1.7,1.39,2.03,1.69,2.54,2.72,1.56,3.18.99,6.55.2,11.23Z"/>
          <path class="cls-1" d="m251.67,108.35s.03.01,0,0h0Z"/>
          <path class="cls-1" d="m251.65,108.34s-.02,0-.03,0c-.01,0-.02,0-.03-.01.03,0,.04.01.06.02Z"/>
          <path class="cls-1" d="m251.05,108.17h0c-.05-.03.11,0,0,0Z"/>
          <path class="cls-2" d="m253.14,110.8h0s-.05.08-.07.11c-.92,1.35-1.84,2.69-2.77,4.03-.48.69-.95,1.38-1.43,2.08-.26.38-.61.79-.91,1.24-.76-.18-1.52-.35-2.27-.56-.61-.18-1.22-.37-1.82-.61-.12-.04-.23-.09-.34-.14-.1-.2-.24-.38-.41-.51,0,0,0-.02,0-.02.22-.44.44-.89.65-1.33.41-.81.82-1.62,1.28-2.4.81-1.41,1.8-2.84,3.18-3.75.07-.05.14-.1.22-.14.53-.34,1.07-.57,1.73-.65.08,0,.54,0,.75.01.04,0,.07,0,.09,0h0s.05.01.09.03c.16.05.32.08.48.14.06.03.11.05.16.08.14.08.28.16.42.27-.21-.16.29.36.29.32.41.56.53,1.03.65,1.8Z"/>
          <path class="cls-2" d="m245.89,106.97c-1.7,1.4-2.93,3.25-3.96,5.19-.58,1.07-1.1,2.17-1.64,3.26-.06.11-.11.22-.17.33-.51-.11-1.03-.26-1.53-.42-.53-.17-1.06-.36-1.57-.6-.23-.11-.47-.22-.7-.35.51-.96,1.12-1.89,1.69-2.79.81-1.27,1.7-2.52,2.65-3.69.36-.45.74-.93,1.25-1.23.52-.31,1.14-.23,1.73-.2.63.04,1.3.06,1.9.29.12.06.25.14.35.2Z"/>
          <path class="cls-2" d="m243.19,129.74c-.08.07-.16.15-.22.24-.06.02-.12.03-.16.04-.41.04-.82.07-1.23.1-.79.05-1.59.08-2.39.06-.45-.02-.85-.08-1.03-.37-.29-.45-.38-1.22-.49-1.81-.52-2.9-.59-5.92-.22-8.85,1.51.54,3.07.96,4.67,1.23-.34,2.64.24,6.52.59,7.71.16.56.32,1.12.48,1.66Z"/>
          <path class="cls-2" d="m238.32,106.01c-1.34,1.65-2.56,3.4-3.66,5.21-.44.74-.94,1.5-1.31,2.29-.53-.15-1.01-.36-1.52-.67-.39-.24-.77-.51-1.14-.79-.09-.08-.35-.28-.5-.4-.04-.03-.07-.06-.11-.08.12-.35.35-.73.47-.99.28-.61.59-1.22.92-1.81.62-1.1,1.32-2.18,2.11-3.17.29-.36.57-.84,1.03-.97.42-.12.96-.06,1.3,0,.99.19,1.77.64,2.41,1.39Z"/>
          <path class="cls-1" d="m232.95,115.04c-.02-.15-.01-.32.02-.49-.03.17-.04.33-.02.49Z"/>
          <path class="cls-2" d="m228.48,122.86c-1.7-5.45-1.6-8.45-1.3-10.09h0c.3.61.89,1.03,1.47,1.48.25.19.5.38.75.56-.63,2.58-1.03,5.35-.92,8.04Z"/>
          <path class="cls-2" d="m234.56,118.15c-.27,2-.4,4.01-.31,6.03.04,1.11.16,2.21.31,3.3,0,0,0,.02,0,.02h0c-.24-.05-.49-.06-.74-.02.05-.02-.08,0-.14,0h-.02s-.09,0-.11-.01c-.28-.07-.31-.1-.53-.24-.29-.19-.59-.53-.8-.87-.54-.93-.66-2.07-.7-3.12-.08-2.07.1-4.14.48-6.18.33.14.62.26,1.1.47.48.21.97.41,1.45.63h0Z"/>
          <path class="cls-1" d="m232.95,115.04c-.02-.15-.01-.32.02-.49-.03.17-.04.33-.02.49Z"/>
          <path class="cls-1" d="m230.08,111.57c-.06.17-.1.33-.09.46-.06-.26-.14-.51-.21-.76.06.12.14.19.3.31Z"/>
        </g>
        <g>
          <path class="cls-1" d="m333.3,40.28c-.06,4.02-1.74,6.91-4.79,12.16-1.86,3.2-2.88,4.96-4.49,6.28-3.19,2.62-6.92,3.29-9.99,3.29-2.2,0-4.08-.34-5.18-.54-3.17-.58-9.07-1.65-11.03-6.31-.39-.92-.39-1.51-.39-2.25s0-1.96-.34-4.9l-.02-.2c-.16-1.32-.33-2.82.05-4.75l.04-.23c1.11-5.66,1.41-6.52,1.66-7.01.58-1.12,1.94-1.55,3.05-.98,1.08.56,1.53,1.87,1.02,2.96-.11.33-.43,1.53-1.29,5.9l-.04.23c-.24,1.23-.14,2.17,0,3.35l.02.2c.37,3.18.37,4.63.37,5.41,0,.18,0,.38,0,.44,0,0,.01.02.02.05.54,1.28,2.08,2.11,3.73,2.66-1.37-5.28-1.53-11.99.59-15.98.62-1.19,1.78-3.15,2.88-4.97,0,0,0,0,0-.01.11-.19.22-.37.34-.56.09-.16.19-.31.27-.45.48-.8.94-1.54,1.3-2.12.05-.08.1-.17.15-.24.03-.06.07-.11.1-.16.08-.13.15-.24.21-.35.03-.05.06-.09.08-.14.01-.02.02-.04.03-.05.04-.06.07-.11.1-.16.06-.09.1-.16.13-.2,0,0,0-.02.01-.02,0-.01.01-.02.01-.02.94-1.37,1.85-2.56,2.63-3.53-3.09.63-5.37,2.36-5.72,2.64-.98.78-2.4.62-3.18-.36s-.61-2.41.37-3.19c1.17-.92,7.34-5.42,14.74-3.31,5.33,1.52,8.12,5.59,9.18,7.12.85,1.24,3.45,5.02,3.36,10.29Z"/>
          <path class="cls-1" d="m311.9,30.66s-.07.11-.13.2c-.03.04-.06.1-.1.16,0,.01-.02.03-.03.05-.02.04-.05.09-.08.14-.06.1-.13.22-.21.35-.03.05-.07.1-.1.16-.05.08-.1.16-.15.24-.36.59-.81,1.32-1.3,2.12-.09.15-.18.3-.27.45-.11.19-.22.37-.34.56.86-1.61,1.79-3.1,2.71-4.43Z"/>
        </g>
      </g>
    </g>
  </g>
</svg>